<svg width="82" height="61" viewBox="0 0 82 61" fill="none" xmlns="http://www.w3.org/2000/svg">
<path d="M59.8219 44.9558L80.3781 44.5614C81.2569 44.5445 81.9828 45.2432 82 46.1223C82.0165 47.001 81.3181 47.7272 80.4391 47.7441C80.3888 47.745 80.3363 47.7435 80.2872 47.7397L59.7873 46.171C59.452 46.1454 59.201 45.8529 59.2267 45.5179C59.2507 45.2032 59.5129 44.9626 59.8219 44.9558" fill="#323232"/>
<path d="M61.2006 35.4932L67.2495 32.462C67.8251 32.1736 68.5254 32.4064 68.8138 32.982C69.1022 33.5576 68.8694 34.2579 68.2938 34.5463C68.2382 34.5744 68.1744 34.5991 68.1169 34.6176L61.6546 36.6209C61.3328 36.7209 60.9912 36.5409 60.8912 36.2191C60.8016 35.9297 60.9384 35.6241 61.2006 35.4932Z" fill="#323232"/>
<path d="M63.543 18.4865L66.5397 14.4507C66.961 13.8835 67.7622 13.7651 68.3294 14.186C68.8969 14.6072 69.0153 15.4088 68.5941 15.9759C68.5266 16.0666 68.4444 16.1497 68.36 16.2172L64.4154 19.3333C64.1498 19.5433 63.7642 19.498 63.5542 19.2324C63.3786 19.0099 63.382 18.7037 63.543 18.4865" fill="#323232"/>
<path d="M56.451 26.2692L59.9587 22.1677C60.1771 21.9118 60.5618 21.8818 60.8174 22.1006C61.073 22.3193 61.103 22.7037 60.8846 22.9593C60.8683 22.978 60.8486 22.998 60.8311 23.0143L56.8363 26.6432C56.7263 26.7429 56.5563 26.7348 56.4563 26.6248C56.3641 26.5232 56.3641 26.3707 56.451 26.2692Z" fill="#323232"/>
<path d="M46.2137 22.061L48.2967 14.3785C48.4773 13.7113 49.1648 13.3173 49.832 13.4982C50.4988 13.6788 50.8932 14.3663 50.7123 15.0335C50.6951 15.0969 50.6701 15.1641 50.6441 15.2225L47.358 22.4723C47.2186 22.7791 46.8574 22.9151 46.5505 22.776C46.274 22.6507 46.1365 22.3448 46.2137 22.061" fill="#323232"/>
<path d="M35.3042 18.5216L34.6958 14.5083L34.3918 12.5015L34.138 10.4907L33.1312 2.44624C33.0324 1.65939 33.5909 0.941606 34.3777 0.84286C35.1649 0.744425 35.8827 1.30253 35.9814 2.08969C35.9861 2.12813 35.9892 2.16938 35.9911 2.20719L36.333 10.3072L36.4167 12.3322L36.4498 14.3615L36.5158 18.4204C36.5214 18.7566 36.253 19.0341 35.9164 19.0394C35.6077 19.0444 35.3489 18.8188 35.3042 18.5216Z" fill="#323232"/>
<path d="M25.8458 23.6537L19.4404 15.8136C19.0804 15.3727 19.146 14.7237 19.5863 14.3637C20.0269 14.0037 20.6763 14.0693 21.0363 14.5099C21.0541 14.5315 21.0719 14.5556 21.0875 14.5784L26.8186 22.9243C27.0089 23.2015 26.9386 23.5803 26.6614 23.7706C26.3992 23.9506 26.0442 23.8949 25.8458 23.6537" fill="#323232"/>
<path d="M17.2843 30.1258L4.55875 21.5626C3.91377 21.1283 3.74253 20.2533 4.17689 19.608C4.61094 18.963 5.48591 18.7918 6.1312 19.2261C6.17151 19.2533 6.21151 19.2836 6.24838 19.314L18.0146 29.1536C18.2727 29.3696 18.3067 29.7533 18.0911 30.0111C17.8896 30.252 17.5393 30.2961 17.2843 30.1258" fill="#323232"/>
<path d="M21.5933 32.9028L19.2018 31.5601C18.9062 31.3941 18.8012 31.0204 18.9671 30.7251C19.1331 30.4295 19.5068 30.3248 19.8024 30.4904C19.8499 30.5173 19.8946 30.5517 19.9321 30.5879L21.8873 32.5116C21.9845 32.6072 21.9858 32.7635 21.8902 32.8607C21.8102 32.9419 21.688 32.956 21.5933 32.9028" fill="#323232"/>
<path d="M17.9227 40.8214L7.81362 38.9481C7.20364 38.8353 6.80116 38.2493 6.91397 37.6394C7.02709 37.0294 7.61301 36.6266 8.22267 36.7397C8.25955 36.7466 8.29705 36.7556 8.33204 36.7656L18.2036 39.6384C18.5264 39.7324 18.712 40.0702 18.6179 40.393C18.5301 40.6952 18.2255 40.8764 17.9227 40.8214" fill="#323232"/>
<path d="M17.9831 49.1718L1.74956 52.7904C1.03678 52.9491 0.329924 52.5001 0.171179 51.7873C0.012122 51.0742 0.46117 50.3677 1.17396 50.2086C1.21052 50.2005 1.24958 50.1939 1.28583 50.1886L17.7697 47.9746C18.1028 47.9299 18.409 48.1637 18.4537 48.4968C18.4962 48.8118 18.2871 49.103 17.9831 49.1718Z" fill="#323232"/>
<path d="M38.3621 46.4177V38.5164C38.3621 38.1924 38.0577 37.9542 37.7431 38.0324L25.756 41.002C25.5716 41.0476 25.5491 41.3007 25.7225 41.3782L37.7999 46.7821C38.0637 46.9002 38.3621 46.7071 38.3621 46.4177" fill="#323232"/>
<path d="M52.4114 43.757C52.5976 43.7085 52.6142 43.4504 52.4354 43.3785L39.4643 38.169C39.2021 38.0637 38.9165 38.2565 38.9165 38.5393V45.9775C38.9165 46.6306 39.5337 47.1081 40.1658 46.9434L52.4114 43.757V43.757Z" fill="#323232"/>
<path d="M24.7652 42.5621L25.0245 51.5221C25.0339 51.8487 25.203 52.1502 25.4767 52.329L37.5838 60.2312C37.916 60.4481 38.356 60.2093 38.3556 59.8128L38.3441 49.8409C38.3428 48.851 37.7785 47.9475 36.8888 47.5126L25.6267 42.0068C25.222 41.809 24.752 42.1118 24.7652 42.5621" fill="#323232"/>
<path d="M39.5161 49.8172V60.0988C39.5161 60.4581 39.8849 60.7 40.2145 60.5562L52.5422 55.188C52.8966 55.0339 53.1297 54.6889 53.1416 54.303L53.4407 44.3596C53.4447 44.223 53.3132 44.1227 53.1825 44.1627L40.9289 47.9082C40.0895 48.1648 39.5161 48.9394 39.5161 49.8172" fill="#323232"/>
<path d="M39.1328 36.0521C39.4649 35.363 39.8965 34.3121 40.158 33.0706C40.1783 32.9743 40.1243 32.8778 40.0321 32.8431L29.4331 28.8667C29.2256 28.7889 29.065 29.0564 29.2309 29.2032L38.1559 37.0945C38.2965 37.2186 38.5147 37.1851 38.6112 37.0242C38.7453 36.8002 38.9315 36.4689 39.1328 36.0521" fill="#323232"/>
<path d="M53.1651 30.6143C52.7183 30.2233 52.2177 29.8987 51.6845 29.6615C51.1511 29.4249 50.5815 29.2846 50.008 29.2512C49.4346 29.2152 48.86 29.2934 48.31 29.4487C47.2078 29.7627 46.2094 30.3871 45.3579 31.1527C44.6776 31.7673 44.0835 32.4789 43.6054 33.2489C43.4536 33.4932 43.4929 33.8104 43.7032 34.0066L53.4489 43.1067C53.5414 43.1929 53.6892 43.1729 53.7551 43.0651C54.5616 41.7489 56.6728 37.6843 55.0657 33.3767C54.6716 32.3205 54.0248 31.3708 53.1786 30.6261C53.1739 30.6221 53.1695 30.6183 53.1651 30.6143" fill="#323232"/>
<path fill-rule="evenodd" clip-rule="evenodd" d="M27.8438 27.9358H27.7629L27.8438 28.0167V27.9358Z" fill="#323232"/>
<path d="M44.7772 30.4981C45.7675 29.74 46.9062 29.1457 48.1402 28.8966C48.623 28.8007 49.1192 28.7597 49.6105 28.7888L34.9919 23.9677C32.0214 23.608 29.9211 25.2811 28.7752 26.5654C28.309 27.0882 28.5155 27.9166 29.1718 28.1626L41.9163 32.9443C42.1707 33.0399 42.4557 32.9505 42.6147 32.7302C43.2272 31.8796 43.9572 31.1303 44.7772 30.4981Z" fill="#323232"/>
<path d="M39.6674 36.2966C39.4803 36.6844 39.3065 36.9997 39.1712 37.2309C39.0481 37.4406 39.1409 37.7106 39.3665 37.8018L52.7576 43.212L44.2789 35.2947C43.4386 34.5101 41.5914 33.5348 40.9649 33.2148C40.8543 33.1582 40.7202 33.2148 40.684 33.3339C40.4943 33.9588 39.9549 35.6997 39.6674 36.2966" fill="#323232"/>
</svg>
